<svg xmlns="http://www.w3.org/2000/svg" viewBox="0 0 100 100">
  <!-- Top-left to bottom-right green swoosh -->
  <path d="M 22,26 A 38,38 0 0,1 80,18 A 38,38 0 0,0 12,55 A 38,38 0 0,1 22,26 Z" fill="#3DB93A" />
  <!-- Bottom-right to top-left green swoosh -->
  <path d="M 78,74 A 38,38 0 0,1 20,82 A 38,38 0 0,0 88,45 A 38,38 0 0,1 78,74 Z" fill="#3DB93A" />
  <!-- Stylized interlocking Z outer -->
  <path d="M 32,30 H 75 L 58,48 H 75 L 53,70 H 25 L 42,52 H 25 Z" fill="#3DB93A" />
  <!-- Stylized interlocking Z inner bevel/shadow -->
  <path d="M 37,36 H 64 L 54,48 H 64 L 46,64 H 32 L 42,52 H 32 Z" fill="#2A9128" />
</svg>